<svg width="57" height="56" viewBox="0 0 57 56" fill="none" xmlns="http://www.w3.org/2000/svg">
<g clip-path="url(#clip0_23_8961)">
<rect width="56" height="56" transform="translate(0.380371)" fill="#E0F4FE"/>
<path d="M30.3859 48.1302C29.5641 48.9363 28.5157 49.7372 27.1867 50.4164C26.124 50.9601 24.8823 51.4263 23.4321 51.7552C25.2124 56.5204 27.2329 59.6941 27.2329 59.6941C27.2329 59.6941 31.7155 53.4371 33.1396 43.8546C33.0068 44.2863 32.329 46.2229 30.3852 48.1302H30.3859ZM26.0836 53.7653C25.7418 53.7653 25.4644 53.4879 25.4644 53.1461C25.4644 52.8042 25.7418 52.5268 26.0836 52.5268C26.4255 52.5268 26.7029 52.8042 26.7029 53.1461C26.7029 53.4879 26.4255 53.7653 26.0836 53.7653Z" fill="#FFBF44"/>
<path d="M37.6522 19.4197C37.5806 18.9437 37.5005 18.5029 37.4198 18.1135C37.3097 17.5821 37.1645 17.054 36.9802 16.5416C36.7666 15.949 36.2522 15.5381 35.6629 15.4411C35.4532 15.4059 35.2338 15.4111 35.015 15.4626C34.9538 15.4769 34.9187 15.4893 34.9187 15.4893C34.7917 15.5271 34.6667 15.5629 34.5429 15.5974C29.0074 17.1406 26.7147 15.5244 26.6665 15.4899L27.2779 17.1882L27.6217 18.1421C24.8758 18.6982 24.2728 22.2907 24.2728 22.2907C24.0299 21.7977 23.7694 21.3003 23.5656 20.9187C23.4647 20.7285 23.3299 20.5618 23.1723 20.4244C22.8747 20.1659 22.4932 20.0129 22.0882 20.0103H22.0758C20.9428 20.0103 19.9888 20.8314 19.7003 21.9488C19.6417 22.1741 19.6105 22.4124 19.6105 22.6579C19.6105 22.8891 19.6378 23.1131 19.6899 23.3267C19.8332 23.9179 20.162 24.4291 20.6061 24.784C20.6354 24.8387 20.664 24.8934 20.692 24.9481C20.8236 24.9995 20.9558 25.0444 21.0847 25.0829C21.6076 25.2411 22.066 25.2997 22.109 25.3049C22.1109 25.3056 22.1123 25.3056 22.1123 25.3056L21.995 28.4976L21.7873 34.1607L27.134 38.0879L32.5243 34.1282V30.8059C32.8063 30.7981 33.0967 30.7792 33.3956 30.748C33.8208 30.703 34.2089 30.6112 34.5631 30.4777C38.293 29.0823 38.2155 23.147 37.6522 19.4197Z" fill="#F9BEA5"/>
<path d="M29.9377 19.945C30.116 19.9319 30.2397 19.6364 30.214 19.2849C30.1883 18.9334 30.023 18.6591 29.8447 18.6721C29.6665 18.6851 29.5428 18.9806 29.5685 19.3321C29.5942 19.6836 29.7595 19.958 29.9377 19.945Z" fill="#231F20"/>
<path d="M35.6221 20.0857C35.8003 20.0727 35.924 19.7772 35.8983 19.4257C35.8727 19.0742 35.7073 18.7998 35.529 18.8128C35.3508 18.8259 35.2271 19.1214 35.2528 19.4729C35.2785 19.8244 35.4438 20.0988 35.6221 20.0857Z" fill="#231F20"/>
<path d="M26.0837 53.7652C26.4257 53.7652 26.703 53.488 26.703 53.146C26.703 52.804 26.4257 52.5267 26.0837 52.5267C25.7417 52.5267 25.4645 52.804 25.4645 53.146C25.4645 53.488 25.7417 53.7652 26.0837 53.7652Z" fill="#231F20"/>
<path d="M41.8907 40.0433C41.8907 40.0433 41.4609 42.269 40.1267 45.3333C39.4065 46.9899 38.4206 48.892 37.0962 50.8201C36.7693 51.2967 36.4215 51.774 36.0523 52.25C34.4303 54.3383 32.3882 56.3933 29.8305 58.1358C29.8298 58.1358 29.8292 58.1371 29.8292 58.1371C29.0172 58.6906 28.1531 59.2129 27.2336 59.6941C27.2336 59.6941 31.7156 53.4371 33.1403 43.8552C33.3578 42.3862 33.5043 40.8403 33.5519 39.2261C33.559 38.9975 33.5636 38.769 33.5662 38.5385C33.5727 38.0254 33.5681 37.5057 33.5532 36.9802L35.8407 37.3058L37.7102 37.5721L37.7727 37.5812L40.6111 37.9902L39.7373 39.2984L39.3739 39.8427L38.5404 41.0904L41.8907 40.0433Z" fill="#273A23"/>
<path d="M29.3461 40.5212L28.5555 41.3052C28.4702 41.3899 28.3667 41.4524 28.2554 41.4901C28.5647 41.8932 30.4166 44.4653 30.386 48.1294C32.3297 46.2221 33.0069 44.2862 33.1404 43.8539C33.4582 41.7168 33.6242 39.4149 33.5539 36.9789L33.2941 36.9418L30.6289 41.8939L29.3461 40.5206V40.5212Z" fill="#E2D2F9"/>
<path d="M28.0053 41.5325C28.0912 41.5325 28.1752 41.5175 28.2553 41.4908C28.3673 41.453 28.4702 41.3905 28.5555 41.3059L29.346 40.5219L27.134 38.153L24.9937 40.4451L25.8616 41.3065C25.9469 41.3912 26.0505 41.4537 26.1618 41.4915C26.2419 41.5182 26.3259 41.5331 26.4119 41.5331H28.0046L28.0053 41.5325Z" fill="#BABABA"/>
<path d="M24.0325 48.1725C22.2737 46.4638 21.5366 44.7226 21.3009 44.0519C21.7958 46.8656 22.587 49.4904 23.4335 51.7545C24.8836 51.4256 26.1247 50.9594 27.1881 50.4157C25.8825 49.7483 24.8485 48.9636 24.0332 48.1718L24.0325 48.1725Z" fill="#FFBF44"/>
<path d="M30.3859 48.1301C29.5642 48.9363 28.5158 49.7372 27.1868 50.4163C25.8818 49.7489 24.8471 48.9642 24.0325 48.1731C23.9876 44.4862 25.8525 41.8959 26.1625 41.4908C26.2426 41.5175 26.3266 41.5325 26.4126 41.5325H28.0053C28.0913 41.5325 28.1752 41.5175 28.2553 41.4908C28.564 41.8939 30.4159 44.466 30.3859 48.1301Z" fill="#BABABA"/>
<path d="M40.5213 14.855C40.4562 15.3219 40.3025 15.7686 40.0759 16.1762C39.9066 16.4816 39.6963 16.7655 39.4521 17.0195C39.4026 17.0709 39.3512 17.1256 39.2978 17.1823C38.7508 17.7683 38.0235 18.6298 37.6523 19.4197C37.5807 18.9437 37.5006 18.5028 37.4198 18.1134C37.3098 17.5821 37.1646 17.054 36.9803 16.5415C36.9575 16.4777 36.9308 16.4159 36.9009 16.3566C36.5564 15.667 35.7809 15.2835 35.0151 15.4626C34.9539 15.4769 34.9187 15.4893 34.9187 15.4893C29.111 17.2135 26.716 15.5251 26.6665 15.4899L26.7303 15.667L27.6218 18.1421C25.0503 18.663 24.3582 21.8465 24.28 22.249C24.2755 22.2763 24.2728 22.2907 24.2728 22.2907C24.03 21.7977 23.7695 21.3002 23.5657 20.9186C23.274 20.3717 22.7088 20.0142 22.0882 20.0103H22.0758C20.7143 20.0103 19.6105 21.196 19.6105 22.6579C19.6105 22.8891 19.6379 23.1131 19.69 23.3266C19.5942 23.1945 19.4972 23.0623 19.4002 22.9301C17.8361 20.8027 16.2004 18.7399 16.2251 15.9431C16.2362 14.7469 16.6816 13.8327 17.3946 13.1366C18.2633 12.2875 19.5298 11.7613 20.8914 11.4384C20.8914 11.4384 20.877 11.2528 20.9031 10.9546C20.9031 10.9539 20.9037 10.9526 20.9037 10.9519C20.9298 10.6544 20.9955 10.2454 21.1551 9.79874C21.1583 9.78832 21.1622 9.77725 21.1661 9.76618C21.1746 9.74404 21.1824 9.7219 21.1909 9.69976C21.2052 9.66329 21.2195 9.62683 21.2352 9.59037C21.2482 9.55911 21.2612 9.52786 21.2756 9.4966C21.6324 8.68656 22.3161 7.80813 23.6171 7.26051C23.6933 7.2286 23.7708 7.19735 23.8489 7.1687C28.353 5.50172 30.9968 8.69763 30.9968 8.69763C31.0052 8.69697 31.0137 8.69567 31.0228 8.69502C31.0274 8.69437 31.0332 8.69371 31.0397 8.69306H31.0423C31.4044 8.66051 33.8658 8.49707 35.7248 9.80591C35.7997 9.85865 35.8733 9.91335 35.9456 9.97065C36.4939 10.4043 36.9764 10.9793 37.3183 11.7412C37.3183 11.7412 37.6744 11.7548 38.1504 11.8655C38.2351 11.8844 38.323 11.9072 38.4141 11.9333L38.4174 11.9346C38.4793 11.9528 38.5431 11.9723 38.6069 11.9938C39.6006 12.3265 40.7662 13.0936 40.5213 14.855Z" fill="#700517"/>
<path d="M27.2336 59.6941C27.1177 59.6335 27.0031 59.5723 26.8892 59.5098C26.7466 59.433 26.6052 59.3548 26.4652 59.2747C26.2575 59.1575 26.0524 59.0377 25.8499 58.9153C25.6975 58.8235 25.5471 58.7304 25.398 58.6366C25.0425 58.412 24.6967 58.1821 24.3594 57.9457C24.2799 57.8904 24.2011 57.8344 24.1224 57.7784C24.0664 57.7373 24.0104 57.6976 23.955 57.6566C23.8528 57.5824 23.7519 57.5075 23.6509 57.432C23.576 57.376 23.5018 57.3193 23.4276 57.2627C23.3559 57.208 23.2843 57.1526 23.2133 57.0966C23.2075 57.092 23.2016 57.0875 23.1958 57.0829C23.1306 57.0321 23.0662 56.9807 23.0017 56.9286C22.9906 56.9201 22.9789 56.911 22.9678 56.9019C22.8982 56.8459 22.8285 56.7899 22.7595 56.7332C22.6866 56.674 22.6143 56.6141 22.5427 56.5535C22.4945 56.5138 22.4469 56.4734 22.3994 56.4324C22.344 56.3868 22.2893 56.34 22.2353 56.2924C22.2327 56.2911 22.2308 56.2892 22.2288 56.2872C22.1669 56.2345 22.1064 56.1811 22.0458 56.1277C22.0243 56.1088 22.0028 56.0899 21.9813 56.071C21.9377 56.0326 21.8948 55.9948 21.8518 55.9557C21.8016 55.9115 21.7521 55.8666 21.7027 55.821C21.6421 55.7663 21.5815 55.7109 21.5216 55.6556C21.4324 55.5729 21.3445 55.4902 21.2573 55.4075C21.2143 55.3671 21.1713 55.3261 21.129 55.2851C20.9805 55.1418 20.834 54.9979 20.6901 54.8534C20.6393 54.8026 20.5885 54.7511 20.5384 54.6997C20.4088 54.5675 20.2818 54.4346 20.1568 54.3018C20.0969 54.2393 20.0383 54.1761 19.9803 54.113C19.7264 53.8388 19.4809 53.5627 19.2439 53.2853C19.2009 53.2359 19.1586 53.1857 19.1169 53.1362C18.7841 52.7423 18.467 52.3464 18.1655 51.9498C18.1219 51.8925 18.0789 51.8352 18.036 51.7779C17.7794 51.436 17.5339 51.0942 17.2995 50.753C17.2552 50.6891 17.2116 50.6247 17.1686 50.5609C17.1328 50.5081 17.097 50.4547 17.0618 50.402C17.0065 50.3199 16.9524 50.2379 16.899 50.1565C16.858 50.0933 16.817 50.0308 16.7766 49.9683C16.7343 49.9026 16.692 49.8368 16.6509 49.7717C16.6093 49.7059 16.5676 49.6408 16.5272 49.575C16.4855 49.5093 16.4452 49.4441 16.4054 49.379C16.3657 49.3139 16.326 49.2488 16.2863 49.1837C16.2472 49.1192 16.2081 49.0541 16.1697 48.9896C16.1411 48.9421 16.1131 48.8945 16.0851 48.847C16.0479 48.7845 16.0115 48.722 15.9757 48.6595C15.5531 47.9321 15.1774 47.2211 14.844 46.5387C14.8147 46.4787 14.7853 46.4182 14.7567 46.3583C14.6121 46.0587 14.476 45.7651 14.3478 45.4779C14.3282 45.4349 14.3094 45.392 14.2905 45.349C14.2091 45.1641 14.1303 44.9824 14.0547 44.8039C14.0319 44.7486 14.0085 44.6939 13.9864 44.6399C13.9069 44.4484 13.8307 44.2609 13.7585 44.0772C13.737 44.0238 13.7161 43.9705 13.6959 43.9177C13.6549 43.8122 13.6146 43.708 13.5761 43.6051C13.5566 43.5537 13.5377 43.5029 13.5188 43.4521C13.5123 43.4352 13.5065 43.4189 13.4999 43.402C13.4693 43.3186 13.4387 43.236 13.4094 43.1552C13.4036 43.137 13.3964 43.1187 13.3899 43.1005C13.3749 43.0582 13.36 43.0165 13.3456 42.9748C13.3228 42.9117 13.3007 42.8491 13.2792 42.7873C13.2564 42.7209 13.2336 42.6551 13.2115 42.5906C12.8527 41.5344 12.6443 40.7387 12.5453 40.3266C12.5414 40.3096 12.5375 40.2933 12.5336 40.2777C12.5239 40.2347 12.5147 40.1963 12.5076 40.1638C12.5043 40.1514 12.5017 40.1397 12.4998 40.1286C12.4939 40.1045 12.49 40.0843 12.4861 40.068C12.4835 40.057 12.4815 40.0472 12.4802 40.0394C12.4763 40.0211 12.4744 40.012 12.4744 40.012L15.8239 41.0591L14.114 38.4981L13.7565 37.9628L15.8279 37.6678L20.8106 36.9587C20.6959 39.3876 20.9017 41.7819 21.3009 44.0525C21.7958 46.8662 22.5869 49.4904 23.4335 51.7551C24.5574 54.7628 25.7763 57.1363 26.5232 58.4784C26.9595 59.2624 27.2343 59.6941 27.2343 59.6941H27.2336Z" fill="#273A23"/>
<path d="M60.6728 56.8114V64.3018H-2.94775L-2.94125 53.2932L5.66581 40.6587C5.73744 40.5539 5.81234 40.4523 5.89178 40.3546C6.61783 39.454 7.65513 38.8504 8.80704 38.6681L13.7559 37.9629L14.1134 38.4981L15.8233 41.0592L12.4737 40.0121C12.4737 40.0121 12.4757 40.0212 12.4796 40.0394C12.4809 40.0473 12.4829 40.057 12.4855 40.0681C12.4894 40.0844 12.4933 40.1046 12.4991 40.1287C12.5011 40.1397 12.5037 40.1514 12.5069 40.1638C12.5141 40.1964 12.5232 40.2348 12.533 40.2778C12.5369 40.2934 12.5408 40.3097 12.5447 40.3266C12.6437 40.7388 12.8521 41.5345 13.2108 42.5907C13.233 42.6552 13.2558 42.7209 13.2786 42.7873C13.3001 42.8492 13.3222 42.9117 13.345 42.9749C13.3593 43.0166 13.3743 43.0582 13.3893 43.1006C13.3958 43.1188 13.4029 43.137 13.4088 43.1553C13.4381 43.236 13.4687 43.3187 13.4993 43.402C13.5058 43.419 13.5117 43.4352 13.5182 43.4522C13.5371 43.503 13.556 43.5538 13.5755 43.6052C13.6139 43.7081 13.6543 43.8123 13.6953 43.9178C13.7155 43.9705 13.7363 44.0239 13.7578 44.0773C13.8301 44.2609 13.9063 44.4485 13.9857 44.6399C14.0079 44.6946 14.0313 44.7493 14.0541 44.804C14.1296 44.9824 14.2084 45.1641 14.2898 45.349C14.3087 45.392 14.3276 45.435 14.3471 45.478C14.4754 45.7651 14.6115 46.0588 14.7561 46.3583C14.7847 46.4182 14.8134 46.4782 14.8433 46.5387C15.1767 47.2211 15.5524 47.9322 15.975 48.6595C16.0108 48.722 16.0473 48.7846 16.0844 48.8471C16.1124 48.8946 16.1404 48.9421 16.1691 48.9897C16.2068 49.0541 16.2459 49.1186 16.2856 49.1837C16.3247 49.2488 16.3644 49.3139 16.4048 49.3791C16.4445 49.4442 16.4849 49.5093 16.5266 49.5751C16.5669 49.6402 16.608 49.706 16.6503 49.7717C16.6913 49.8368 16.7336 49.9026 16.776 49.9684C16.8163 50.0309 16.8567 50.094 16.8984 50.1565C16.9518 50.2379 17.0058 50.32 17.0612 50.402C17.0957 50.4548 17.1315 50.5082 17.168 50.5609C17.2109 50.6248 17.2546 50.6892 17.2988 50.753C17.5333 51.0942 17.7788 51.4361 18.0353 51.778C18.0776 51.8353 18.1213 51.8925 18.1649 51.9498C18.4664 52.3464 18.7835 52.7423 19.1162 53.1363C19.1579 53.1858 19.2002 53.2359 19.2432 53.2854C19.4802 53.5628 19.7257 53.8389 19.9797 54.113C20.0376 54.1762 20.0962 54.2393 20.1561 54.3019C20.2812 54.4347 20.4081 54.5675 20.5377 54.6997C20.5879 54.7512 20.638 54.802 20.6895 54.8534C20.8334 54.998 20.9799 55.1419 21.1283 55.2851C21.1707 55.3261 21.2136 55.3672 21.2566 55.4075C21.3439 55.4902 21.4318 55.5729 21.521 55.6556C21.5809 55.711 21.6408 55.7663 21.702 55.821C21.7515 55.8666 21.801 55.9115 21.8511 55.9558C21.8941 55.9949 21.9371 56.0326 21.9807 56.0711C22.0022 56.0899 22.0237 56.1088 22.0452 56.1277C22.1057 56.1811 22.1663 56.2345 22.2281 56.2873C22.2301 56.2892 22.2321 56.2912 22.2347 56.2925C22.2887 56.34 22.3434 56.3869 22.3988 56.4325C22.4463 56.4735 22.4938 56.5139 22.542 56.5536C22.6136 56.6141 22.6859 56.6734 22.7588 56.7333C22.8279 56.7899 22.8969 56.846 22.9672 56.902C22.9783 56.9111 22.99 56.9202 23.0011 56.9286C23.0655 56.9807 23.13 57.0322 23.1951 57.083C23.201 57.0875 23.2069 57.0921 23.2127 57.0966C23.2837 57.1526 23.3547 57.208 23.4269 57.2627C23.5005 57.3194 23.5754 57.376 23.6503 57.432C23.7512 57.5076 23.8522 57.5824 23.9544 57.6566C24.0097 57.6977 24.0657 57.7374 24.1217 57.7778C24.1999 57.8344 24.2793 57.8904 24.3588 57.9458C24.6961 58.1821 25.0418 58.412 25.3974 58.6367C25.5465 58.7304 25.6969 58.8235 25.8493 58.9154C26.0518 59.0378 26.2569 59.1576 26.4646 59.2748C26.6046 59.3549 26.7459 59.433 26.8885 59.5099C27.0025 59.5724 27.1171 59.6336 27.233 59.6941C39.3186 53.3648 41.89 40.0433 41.89 40.0433L38.5398 41.0904L39.3732 39.8428L39.7366 39.2984L40.6105 37.9902L37.772 37.5813L45.5203 38.6857C46.7301 38.8771 47.8169 39.5348 48.5482 40.5174L52.7221 46.1272L60.6722 56.8114H60.6728Z" fill="#AACC00"/>
<path d="M21.3002 44.0525C21.5359 44.7226 22.2737 46.4644 24.0318 48.1731C23.9869 44.4862 25.8518 41.8959 26.1624 41.4908C26.0504 41.4531 25.9476 41.3906 25.8622 41.3059L24.9942 40.4444L23.6398 41.8952L20.9733 36.9353L20.8112 36.9581C20.6959 39.3869 20.9023 41.7812 21.3015 44.0518L21.3002 44.0525Z" fill="#E2D2F9"/>
<path d="M26.0837 53.7652C26.4257 53.7652 26.703 53.488 26.703 53.146C26.703 52.804 26.4257 52.5267 26.0837 52.5267C25.7417 52.5267 25.4645 52.804 25.4645 53.146C25.4645 53.488 25.7417 53.7652 26.0837 53.7652Z" fill="#DD9828"/>
<path d="M22.1122 25.3055L21.995 28.4975C21.702 27.2805 21.2735 26.068 20.692 24.948C20.8236 24.9994 20.9557 25.0444 21.0847 25.0828C21.6076 25.241 22.066 25.2996 22.1089 25.3048C22.1109 25.3055 22.1122 25.3055 22.1122 25.3055Z" fill="#700517"/>
<g style="mix-blend-mode:multiply">
<path d="M24.7781 26.9126C24.7781 26.9126 26.1143 34.5286 32.5243 34.1275V30.8053C32.5243 30.8053 27.8014 31.2363 24.7781 26.9126Z" fill="#DBAB9A"/>
</g>
<g style="mix-blend-mode:multiply">
<path d="M33.5532 36.9803L33.294 36.9432L32.4052 34.8197L27.0963 38.2084L21.7873 34.8204L20.7787 37.2342L23.2915 43.0126C23.3729 43.1995 23.6236 43.2327 23.7506 43.0732L27.0963 38.8797L30.4433 43.0745C30.5702 43.2334 30.8203 43.2008 30.9017 43.0146L33.5532 36.9809V36.9803Z" fill="#B99FE2"/>
</g>
<g style="mix-blend-mode:screen">
<path d="M34.5631 30.4777C39.0698 25.8805 35.6629 15.441 35.6629 15.441C36.2522 15.5381 36.7666 15.949 36.9802 16.5415C37.1645 17.054 37.3097 17.5821 37.4197 18.1134C37.5005 18.5028 37.5806 18.9437 37.6522 19.4197C38.2155 23.1469 38.293 29.0823 34.5631 30.4777Z" fill="#F9BEA5"/>
</g>
<g style="mix-blend-mode:screen">
<path d="M35.9195 11.7568C33.813 11.9665 31.8953 10.6387 29.8558 10.0696C28.3145 9.63985 26.6749 9.64637 25.0971 9.91334C24.8849 9.94916 24.612 10.0807 24.6693 10.2878C24.698 10.3893 24.7996 10.4492 24.8933 10.4987C25.3648 10.7488 25.9163 11.1577 25.7906 11.676C25.734 11.9092 25.5471 12.0856 25.3602 12.2367C23.6581 13.6132 20.9512 14 18.8141 13.8958C18.2521 13.8685 17.6322 13.6263 17.3945 13.1366C18.2632 12.2875 19.5297 11.7613 20.8913 11.4384C20.8913 11.4384 20.8769 11.2528 20.903 10.9546C20.903 10.9539 20.9036 10.9526 20.9036 10.9519C20.9909 10.5612 21.0241 10.1803 21.155 9.79874C21.1583 9.78832 21.1622 9.77725 21.1661 9.76618C21.1713 9.7512 21.1765 9.73688 21.1823 9.7219C21.1849 9.71474 21.1882 9.70692 21.1908 9.69976C21.2051 9.66329 21.2195 9.62683 21.2351 9.59037C21.2481 9.55911 21.2611 9.52786 21.2755 9.4966C21.7358 8.46712 22.583 7.70199 23.617 7.26051C23.6932 7.2286 23.7707 7.19735 23.8489 7.1687C28.353 5.50172 30.9967 8.69763 30.9967 8.69763C31.0051 8.69697 31.0136 8.69567 31.0227 8.69502C31.0286 8.69437 31.0338 8.69371 31.0396 8.69306H31.0422C31.991 8.69306 32.8974 8.65399 33.837 8.85716C34.3033 8.95809 34.7793 9.09809 35.1902 9.34749C35.5411 9.56042 36.1109 9.83194 36.1506 10.2852C35.7977 10.1367 35.3972 10.2012 35.0143 10.2057C34.6223 10.2103 34.229 10.1484 33.8572 10.0234C33.5616 9.92376 33.2777 9.78507 32.9717 9.72516C32.706 9.67372 31.9194 9.54413 32.1844 9.95566C32.3758 10.2526 33.0817 10.5157 33.391 10.6824C33.8058 10.9057 34.231 11.1095 34.6647 11.2932C34.9727 11.4227 35.5861 11.79 35.9195 11.7568Z" fill="#700517"/>
</g>
<g style="mix-blend-mode:multiply" opacity="0.7">
<path d="M39.2977 17.1823C38.7507 17.7683 38.0234 18.6298 37.6522 19.4196C37.5806 18.9436 37.5005 18.5028 37.4197 18.1134C37.3097 17.5821 37.1645 17.054 36.9802 16.5415C36.9574 16.4777 36.9307 16.4158 36.9008 16.3566C37.128 16.3781 37.3279 16.6268 37.5526 16.7525C37.9224 16.9589 38.7364 17.2584 39.2977 17.1823Z" fill="#700517"/>
</g>
<g style="mix-blend-mode:screen">
<path d="M38.414 11.9332L38.136 11.872C38.1405 11.8694 38.1458 11.8674 38.1503 11.8655C38.235 11.8844 38.3229 11.9072 38.414 11.9332Z" fill="#700517"/>
</g>
<g style="mix-blend-mode:screen">
<path d="M40.5213 14.855C40.4561 15.3219 40.3024 15.7686 40.0758 16.1762C40.0726 16.171 40.0693 16.1658 40.0667 16.1599C40.0531 16.13 40.0485 16.0961 40.0446 16.0635C40.0062 15.7529 39.9671 15.4417 39.9287 15.1311C39.8779 14.7228 39.8264 14.3093 39.6728 13.9277C39.4195 13.2961 38.9096 12.8032 38.3711 12.3864C38.2578 12.2992 38.1321 12.1422 38.2265 12.0342C38.3131 11.9339 38.4746 12.014 38.6068 11.9938C39.6005 12.3265 40.7661 13.0936 40.5213 14.855Z" fill="#700517"/>
</g>
<g style="mix-blend-mode:screen">
<path d="M27.6218 18.1421C25.0503 18.6631 24.3582 21.8466 24.28 22.249C24.2234 22.0244 24.2195 21.7756 24.2409 21.5458C24.349 20.3886 24.8953 19.2784 25.7464 18.4879C26.0043 18.2483 26.3689 17.9865 26.462 17.6264C26.6151 17.0319 26.4673 16.3163 26.408 15.7133C26.4034 15.6671 26.4002 15.6163 26.4282 15.5792C26.4887 15.4991 26.6164 15.5596 26.69 15.628C26.7036 15.641 26.7173 15.654 26.7303 15.6671L27.6218 18.1421Z" fill="#700517"/>
</g>
<g style="mix-blend-mode:screen">
<path d="M23.1723 20.4244C23.0903 20.5742 22.9607 20.6849 22.8018 20.763C22.5687 20.8776 22.3089 20.9245 22.0432 20.9564C21.6805 21 21.3067 21.0156 20.9707 21.1342C20.7669 21.2058 20.5638 21.2852 20.3847 21.405C20.1874 21.5366 20.0239 21.7137 19.8351 21.8569C19.7921 21.8895 19.7472 21.9208 19.7003 21.9488C19.9888 20.8314 20.9428 20.0103 22.0758 20.0103H22.0881C22.4932 20.0129 22.8747 20.1659 23.1723 20.4244Z" fill="#F9BEA5"/>
</g>
<path d="M27.134 38.0872L27.1699 38.1139L27.134 38.1523L29.346 40.5212L30.6289 41.8951L33.294 36.9431V36.9424L32.5244 34.1281V34.1274L27.134 38.0872Z" fill="#273A23"/>
<path d="M24.9936 40.4444L27.1339 38.1523L27.1698 38.1139L27.1339 38.0872L21.7879 34.16H21.7873L20.9727 36.9353L23.6392 41.8952L24.9936 40.4444Z" fill="#273A23"/>
<g style="mix-blend-mode:screen">
<path d="M32.5244 34.1282L27.134 38.0872L28.6317 39.8421L32.6455 34.61L32.5244 34.1282Z" fill="#273A23"/>
</g>
<g style="mix-blend-mode:screen">
<path d="M21.788 34.16L27.134 38.0872L25.4241 39.9593L21.6245 34.5032L21.788 34.16Z" fill="#273A23"/>
</g>
<g style="mix-blend-mode:screen">
<path d="M52.7228 46.1271L52.7144 46.1343L48.1549 41.6458C47.2036 40.7094 45.9722 40.1097 44.649 39.9372L39.695 39.3622L39.917 39.0294L33.6183 38.3262L33.5532 36.9802L37.7728 37.5812L45.5209 38.6856C46.7308 38.8771 47.8176 39.5347 48.5489 40.5173L52.7228 46.1271Z" fill="#AACC00"/>
</g>
<g style="mix-blend-mode:multiply">
<path d="M33.5519 39.2261C33.5043 40.8403 33.3578 42.3862 33.1403 43.8552C31.7156 53.4371 27.2336 59.6941 27.2336 59.6941C27.2336 59.6941 26.9589 59.2624 26.5226 58.4784C26.5799 58.4074 26.6398 58.3377 26.703 58.268C30.1001 54.5199 33.4991 39.4611 33.5519 39.2261Z" fill="#B99FE2"/>
</g>
<g style="mix-blend-mode:screen">
<path d="M27.2311 59.666C22.3389 56.0111 18.6299 51.1241 16.2225 47.3356C15.0504 45.4909 14.2176 43.4501 13.7683 41.3111C13.7513 41.2303 13.7429 41.1874 13.7429 41.1874L14.7952 41.638C17.0052 42.642 15.824 41.0897 15.824 41.0897L12.4738 40.0426C12.4738 40.0426 13.4941 45.3261 17.2683 50.8193C17.1849 50.6787 17.1042 50.5361 17.0241 50.3922C19.2686 53.7359 22.5433 57.2151 27.2324 59.6719H27.2356L27.2402 59.6732C27.2369 59.6706 27.2343 59.668 27.2311 59.6654V59.666Z" fill="#AACC00"/>
</g>
<g style="mix-blend-mode:screen">
<path d="M40.1266 45.3334C39.4065 46.9899 38.4206 48.892 37.0961 50.8201C36.7692 51.2967 36.4215 51.774 36.0523 52.25C34.4302 54.3383 32.3882 56.3934 29.8304 58.1359C29.9294 58.0271 36.4391 51.3573 40.1266 45.3334Z" fill="#AACC00"/>
</g>
<g style="mix-blend-mode:screen">
<path d="M21.8401 46.6142C21.8401 46.6142 23.1014 48.9109 26.0688 49.8583C26.0688 49.8583 22.1208 46.8336 21.3003 44.0519L21.8401 46.6142Z" fill="#BABABA"/>
</g>
<g style="mix-blend-mode:screen">
<path d="M30.3859 48.1301L30.214 48.2727C29.7738 44.4302 27.5572 41.7311 27.4107 41.5266C27.4055 41.5195 27.5742 41.5214 27.5742 41.5214L27.2401 41.5325C28.0743 41.3931 28.7567 41.0383 28.7983 41.0161L28.2553 41.4908C28.5639 41.8939 30.4158 44.466 30.3859 48.1301Z" fill="#BABABA"/>
</g>
<g style="mix-blend-mode:screen">
<path d="M15.8272 37.6678C15.5882 37.8521 15.3232 38.011 14.9943 38.1478C14.7019 38.2689 14.4089 38.3861 14.1133 38.4981C13.3703 38.782 12.6176 39.0372 11.8525 39.2586C9.90938 39.8199 7.90707 40.182 5.89172 40.3545C6.61777 39.454 7.65507 38.8504 8.80698 38.668L13.7558 37.9628L15.8272 37.6678Z" fill="#AACC00"/>
</g>
<g style="mix-blend-mode:multiply">
<path d="M34.515 15.6143C34.4336 15.8409 34.1783 15.9457 33.9491 16.0206C32.2893 16.561 30.6822 16.772 29.0087 16.6756C28.5496 16.649 28.086 16.5995 27.6152 16.5272C27.5723 16.52 27.526 16.5142 27.4882 16.5356C27.4492 16.5571 27.4303 16.6014 27.4147 16.6431C27.3496 16.8196 27.304 17.0019 27.2779 17.1881L26.6665 15.4899C26.7049 15.5172 28.1603 16.5435 31.5339 16.1892L34.4017 15.6357L34.515 15.6143Z" fill="#DBAB9A"/>
</g>
<g style="mix-blend-mode:multiply">
<path d="M35.0938 15.5166L34.5813 15.6781C34.7343 15.5622 34.8958 15.4684 35.0938 15.5166Z" fill="#F9BEA5"/>
</g>
<path d="M22.0758 25.4031C21.5197 25.4031 20.9903 25.2156 20.5449 24.8601C20.5026 24.8262 20.4961 24.765 20.5293 24.7227C20.5632 24.6803 20.6244 24.6738 20.6667 24.707C21.0769 25.0346 21.564 25.2078 22.0752 25.2078C22.4229 25.2078 22.7576 25.1283 23.0702 24.9721C23.1183 24.948 23.1769 24.9675 23.201 25.0157C23.2251 25.0639 23.2056 25.1225 23.1574 25.1466C22.8175 25.3165 22.4528 25.4025 22.0745 25.4025L22.0758 25.4031Z" fill="#231F20"/>
<path d="M20.6062 24.8809C20.5847 24.8809 20.5632 24.8737 20.5449 24.8594C20.0781 24.4863 19.7408 23.9497 19.5949 23.3494C19.5819 23.2966 19.6144 23.2439 19.6665 23.2315C19.7199 23.2185 19.772 23.2511 19.7844 23.3031C19.9198 23.8618 20.233 24.3606 20.6667 24.707C20.709 24.7409 20.7156 24.8021 20.6824 24.8444C20.6628 24.8685 20.6348 24.8809 20.6062 24.8809Z" fill="#231F20"/>
<path d="M22.2613 23.294C22.2496 23.294 22.2379 23.292 22.2262 23.2875C22.176 23.268 22.1506 23.212 22.1701 23.1612C22.2353 22.9906 22.2164 22.846 22.1109 22.7197C21.9377 22.512 21.6955 22.6285 21.3855 22.8688C21.3699 22.8812 21.3497 22.8974 21.3256 22.917C21.0892 23.111 20.8444 23.2933 20.6744 23.2067C20.5839 23.1605 20.5436 23.0544 20.554 22.8916C20.5755 22.5556 20.6803 22.2261 20.8561 21.9396C21.0052 21.6973 21.1843 21.5215 21.3888 21.418C21.8185 21.1999 22.3408 21.2949 22.7946 21.4173C22.8467 21.431 22.8773 21.4851 22.8637 21.5372C22.85 21.5893 22.7966 21.6205 22.7438 21.6062C22.3258 21.4935 21.8478 21.4043 21.4767 21.5925C21.3048 21.6798 21.1517 21.8308 21.0222 22.0425C20.8626 22.3023 20.7676 22.6005 20.748 22.9046C20.7415 23.0107 20.763 23.0342 20.7636 23.0342C20.791 23.0459 20.8848 23.027 21.2006 22.7672C21.226 22.7464 21.2481 22.7281 21.265 22.7151C21.4643 22.5615 21.9312 22.2007 22.26 22.596C22.4104 22.7763 22.4417 22.9964 22.3518 23.2321C22.3368 23.2712 22.2997 23.2947 22.2607 23.2947L22.2613 23.294Z" fill="#231F20"/>
<path d="M33.7987 23.0857C33.5174 23.0857 33.2185 22.9079 32.9541 22.7354C32.9092 22.7061 32.8962 22.6455 32.9255 22.5999C32.9554 22.555 33.0153 22.542 33.0609 22.5713C33.2595 22.7008 33.6287 22.9424 33.8937 22.8793C33.996 22.8552 34.0787 22.7868 34.1451 22.6715C34.3626 22.2958 34.3411 21.6759 34.0819 20.8789C33.8599 20.1952 33.4972 19.5746 33.2068 19.1103C33.1781 19.0648 33.1918 19.0042 33.2374 18.9755C33.2829 18.9469 33.3435 18.9606 33.3722 19.0062C33.6691 19.4795 34.039 20.1138 34.2675 20.8177C34.5482 21.6811 34.5638 22.3375 34.3138 22.7686C34.22 22.9307 34.0936 23.0316 33.9387 23.0681C33.8924 23.0792 33.8456 23.0844 33.7987 23.0844V23.0857Z" fill="#231F20"/>
<path d="M32.2254 30.908C29.5413 30.908 27.6627 29.8773 26.546 28.9943C25.2905 28.0013 24.7169 27.003 24.6928 26.9613C24.6661 26.9145 24.6824 26.8552 24.7292 26.8285C24.7761 26.8018 24.836 26.8181 24.8621 26.865C24.8679 26.8747 25.4449 27.8769 26.673 28.8465C27.8047 29.7399 29.7386 30.7876 32.5204 30.7088C32.5725 30.7062 32.6194 30.7498 32.6207 30.8039C32.622 30.8579 32.5797 30.9028 32.5256 30.9041C32.424 30.9067 32.3238 30.9087 32.2241 30.9087L32.2254 30.908Z" fill="#231F20"/>
<path d="M32.5243 30.9036C32.4716 30.9036 32.428 30.8619 32.4267 30.8085C32.4254 30.7544 32.4677 30.7095 32.5217 30.7082C32.8082 30.7004 33.0993 30.6808 33.3858 30.6502C34.6172 30.52 35.6095 29.9769 36.3356 29.036C38.3522 26.4248 37.8606 21.4513 37.5559 19.434C37.5481 19.3806 37.5845 19.3311 37.6379 19.3226C37.6913 19.3141 37.7408 19.3513 37.7493 19.4047C38.0579 21.4467 38.5534 26.4854 36.4906 29.1558C35.73 30.1404 34.6927 30.7088 33.4067 30.8449C33.1149 30.8755 32.8193 30.8957 32.5276 30.9042C32.5269 30.9042 32.5256 30.9042 32.525 30.9042L32.5243 30.9036Z" fill="#231F20"/>
<path d="M21.9957 28.5952C21.9957 28.5952 21.9931 28.5952 21.9918 28.5952C21.9377 28.5932 21.8961 28.5477 21.898 28.4943L22.0152 25.3023C22.0172 25.2482 22.0647 25.2059 22.1161 25.2085C22.1702 25.2104 22.2119 25.256 22.2099 25.3094L22.0927 28.5014C22.0907 28.5542 22.0471 28.5958 21.995 28.5958L21.9957 28.5952Z" fill="#231F20"/>
<path d="M21.788 34.2577C21.788 34.2577 21.7854 34.2577 21.7841 34.2577C21.7301 34.2558 21.6884 34.2102 21.6904 34.1568L21.8981 28.4943C21.9 28.4402 21.9463 28.3979 21.999 28.4005C22.0531 28.4025 22.0947 28.448 22.0928 28.5014L21.8851 34.1639C21.8831 34.2167 21.8395 34.2584 21.7874 34.2584L21.788 34.2577Z" fill="#231F20"/>
<path d="M37.7728 37.6789C37.7682 37.6789 37.7637 37.6789 37.7591 37.6783L33.5395 37.0772C33.4862 37.0694 33.449 37.0199 33.4568 36.9666C33.4647 36.9132 33.5135 36.876 33.5676 36.8839L37.7871 37.4849C37.8405 37.4927 37.8776 37.5422 37.8698 37.5956C37.8626 37.6444 37.8209 37.6796 37.7734 37.6796L37.7728 37.6789Z" fill="#231F20"/>
<path d="M33.5539 37.0779C33.5493 37.0779 33.5448 37.0779 33.5402 37.0772L33.2804 37.0401C33.227 37.0323 33.1899 36.9828 33.1977 36.9294C33.2055 36.876 33.2537 36.8396 33.3084 36.8467L33.5682 36.8838C33.6216 36.8916 33.6587 36.9411 33.6509 36.9945C33.6437 37.0434 33.6021 37.0785 33.5545 37.0785L33.5539 37.0779Z" fill="#231F20"/>
<path d="M60.6728 64.3993H-2.94774C-2.97378 64.3993 -2.99853 64.3889 -3.01676 64.3706C-3.035 64.3524 -3.04541 64.3277 -3.04541 64.3016L-3.03891 53.2931C-3.03891 53.2735 -3.03305 53.2546 -3.02198 53.2384L5.58509 40.6039C6.32481 39.5177 7.49365 38.7767 8.79206 38.5716L13.7429 37.867C13.7969 37.8592 13.8458 37.8963 13.8536 37.9497C13.8614 38.0031 13.8243 38.0526 13.7709 38.0604L8.82203 38.765C7.57831 38.9623 6.45765 39.6727 5.74788 40.7146L-2.84226 53.3243L-2.84812 64.2046H60.5764V56.8445L48.472 40.5765C47.7518 39.6082 46.6989 38.9714 45.5072 38.7826L37.761 37.6782C37.7076 37.6704 37.6705 37.6209 37.6783 37.5675C37.6861 37.5141 37.735 37.4776 37.789 37.4848L45.5372 38.5892C46.7809 38.7865 47.8788 39.45 48.6296 40.4593L60.7536 56.7533C60.7659 56.7703 60.7731 56.7905 60.7731 56.812V64.3023C60.7731 64.3563 60.7295 64.4 60.6754 64.4L60.6728 64.3993Z" fill="#231F20"/>
<path d="M13.7559 38.0604C13.7083 38.0604 13.666 38.0253 13.6595 37.9764C13.6517 37.923 13.6888 37.8735 13.7422 37.8657L20.7962 36.8616C20.8503 36.8538 20.8991 36.8909 20.9069 36.9443C20.9147 36.9977 20.8776 37.0472 20.8242 37.055L13.7702 38.0591C13.7656 38.0591 13.7611 38.0598 13.7565 38.0598L13.7559 38.0604Z" fill="#231F20"/>
<path d="M20.8099 37.0564C20.7624 37.0564 20.7201 37.0213 20.7136 36.9724C20.7057 36.919 20.7429 36.8695 20.7963 36.8617L20.9584 36.8389C21.0111 36.8311 21.0613 36.8682 21.0691 36.9216C21.0769 36.975 21.0398 37.0245 20.9864 37.0323L20.8243 37.0551C20.8197 37.0551 20.8151 37.0558 20.8106 37.0558L20.8099 37.0564Z" fill="#231F20"/>
<path d="M32.5243 30.9028C32.4703 30.9028 32.4266 30.8599 32.4266 30.8058V30.8039C32.4266 30.7498 32.4703 30.7062 32.5243 30.7062C32.5784 30.7062 32.622 30.7498 32.622 30.8039C32.622 30.8579 32.5784 30.9022 32.5243 30.9022V30.9028Z" fill="#231F20"/>
<path d="M32.5243 34.2257C32.4703 34.2257 32.4266 34.1821 32.4266 34.128V30.8058C32.4266 30.7518 32.4703 30.7081 32.5243 30.7081C32.5784 30.7081 32.622 30.7518 32.622 30.8058V34.128C32.622 34.1821 32.5784 34.2257 32.5243 34.2257Z" fill="#231F20"/>
<path d="M20.9727 37.0329C20.9636 37.0329 20.9545 37.0316 20.9454 37.029C20.894 37.014 20.864 36.9593 20.879 36.9078L21.6936 34.1326C21.7021 34.1026 21.7249 34.0792 21.7542 34.0681C21.7835 34.0577 21.816 34.0616 21.8414 34.0786C21.8798 34.1039 21.8942 34.1521 21.8792 34.1938L21.0665 36.9625C21.0541 37.0049 21.0151 37.0329 20.9727 37.0329Z" fill="#231F20"/>
<path d="M23.6392 41.9928C23.6353 41.9928 23.6307 41.9928 23.6268 41.9921C23.5956 41.9882 23.5682 41.9694 23.5533 41.9414L20.8867 36.9814C20.8613 36.9339 20.8789 36.8747 20.9265 36.8493C20.974 36.8239 21.0333 36.8415 21.0587 36.889L23.6607 41.7291L24.9226 40.3779C24.9598 40.3382 25.0216 40.3362 25.0607 40.3734C25.1004 40.4105 25.1024 40.4717 25.0652 40.5114L23.7108 41.9622C23.692 41.9824 23.6666 41.9934 23.6392 41.9934V41.9928Z" fill="#231F20"/>
<path d="M24.9937 40.542C24.9696 40.542 24.9462 40.5336 24.9273 40.516C24.8876 40.4789 24.8856 40.4177 24.9227 40.3779L27.0631 38.0858C27.1002 38.0461 27.1621 38.0442 27.2011 38.0813C27.2409 38.1184 27.2428 38.1796 27.2057 38.2193L25.0653 40.5114C25.0458 40.5322 25.0197 40.5427 24.9937 40.5427V40.542Z" fill="#231F20"/>
<path d="M27.134 38.25C27.1099 38.25 27.0865 38.2415 27.0676 38.2239C27.0383 38.1966 27.0298 38.1556 27.0422 38.1197C27.0318 38.0904 27.0357 38.0566 27.0559 38.0292C27.0878 37.9856 27.149 37.9765 27.1926 38.0084L27.2284 38.0351C27.2506 38.0514 27.2649 38.0768 27.2675 38.1048C27.2701 38.1328 27.261 38.1601 27.2415 38.1803L27.2056 38.2187C27.1861 38.2396 27.1601 38.25 27.134 38.25Z" fill="#231F20"/>
<path d="M27.134 38.1848C27.1138 38.1848 27.0937 38.1789 27.0761 38.1659L21.7301 34.2387C21.6864 34.2068 21.6773 34.1456 21.7092 34.102C21.7411 34.0584 21.8023 34.0492 21.8459 34.0811L27.192 38.0083C27.2356 38.0402 27.2447 38.1014 27.2128 38.1451C27.1939 38.1711 27.164 38.1848 27.134 38.1848Z" fill="#231F20"/>
<path d="M27.1341 38.1848C27.1041 38.1848 27.0741 38.1711 27.0553 38.1451C27.0234 38.1014 27.0325 38.0402 27.0761 38.0083L32.4664 34.0486L32.5824 34.2062L27.192 38.1659C27.1744 38.1789 27.1542 38.1848 27.1341 38.1848Z" fill="#231F20"/>
<path d="M30.6288 41.9928C30.6021 41.9928 30.5761 41.9818 30.5572 41.9616L29.2744 40.5876C29.2373 40.5479 29.2399 40.4867 29.279 40.4496C29.318 40.4131 29.3799 40.4151 29.417 40.4541L30.6067 41.7285L33.2074 36.8962C33.2328 36.8487 33.2921 36.8311 33.3396 36.8565C33.3872 36.8819 33.4047 36.9411 33.3793 36.9887L30.7141 41.9407C30.6991 41.9687 30.6718 41.987 30.6405 41.9915C30.6366 41.9915 30.6321 41.9922 30.6282 41.9922L30.6288 41.9928Z" fill="#231F20"/>
<path d="M33.294 37.0401C33.2751 37.0401 33.2568 37.0349 33.2399 37.0238C33.2171 37.0089 33.2028 36.9861 33.1983 36.9613L32.4305 34.1535C32.4162 34.1014 32.4468 34.048 32.4989 34.0337C32.5503 34.0194 32.6044 34.05 32.6187 34.1021L33.3884 36.9164C33.3956 36.9437 33.391 36.973 33.3754 36.9965C33.3565 37.0245 33.3252 37.0401 33.294 37.0401Z" fill="#231F20"/>
<path d="M29.346 40.6189C29.3199 40.6189 29.2939 40.6085 29.2744 40.5876L27.0624 38.2187C27.0253 38.179 27.0278 38.1178 27.0669 38.0807C27.106 38.0442 27.1679 38.0461 27.205 38.0852L29.417 40.4542C29.4541 40.4939 29.4515 40.5551 29.4124 40.5922C29.3935 40.6098 29.3694 40.6182 29.346 40.6182V40.6189Z" fill="#231F20"/>
<path d="M27.2336 59.7918C27.2011 59.7918 27.1698 59.7755 27.1509 59.7468C27.1307 59.7149 25.1043 56.5099 23.341 51.7896C23.3221 51.7388 23.3475 51.6828 23.3983 51.664C23.4491 51.6451 23.505 51.6705 23.5239 51.7212C25.2795 56.4213 27.2955 59.6101 27.3156 59.642C27.3443 59.6876 27.3313 59.7481 27.2857 59.7768C27.2694 59.7872 27.2512 59.7918 27.2336 59.7918Z" fill="#231F20"/>
<path d="M27.2337 59.7918C27.2187 59.7918 27.2031 59.7885 27.1881 59.7807C24.4213 58.3319 21.9208 56.3914 19.7564 54.0146C18.0256 52.1132 16.5045 49.9306 15.2354 47.5252C14.1062 45.3861 13.39 43.4632 12.9875 42.2273C12.5513 40.8866 12.3793 40.0394 12.378 40.0309C12.3715 39.9971 12.3826 39.9619 12.4086 39.9391C12.4347 39.9163 12.4705 39.9085 12.5031 39.9183L15.5889 40.8826L13.6745 38.0169C13.6446 37.9719 13.6563 37.9114 13.7012 37.8814C13.7461 37.8515 13.8067 37.8632 13.8367 37.9081L15.9041 41.0038C15.9269 41.0383 15.9256 41.0832 15.9008 41.1164C15.8761 41.1496 15.8331 41.1633 15.7934 41.1509L12.604 40.1546C12.7694 40.8722 13.5293 43.8773 15.4092 47.4392C16.6705 49.8283 18.1825 51.9973 19.9022 53.8851C22.0504 56.2442 24.532 58.1691 27.2773 59.6068C27.3248 59.6316 27.3437 59.6908 27.3183 59.739C27.3007 59.7722 27.2669 59.7911 27.2317 59.7911L27.2337 59.7918Z" fill="#231F20"/>
<path d="M21.3002 44.1502C21.254 44.1502 21.2123 44.117 21.2039 44.0694C20.7709 41.6061 20.6055 39.2124 20.7122 36.9542C20.7148 36.9001 20.7591 36.8585 20.8145 36.8611C20.8685 36.8637 20.9102 36.9093 20.9076 36.9633C20.8015 39.2072 20.9655 41.5865 21.3966 44.0356C21.4057 44.089 21.3706 44.1391 21.3172 44.1489C21.3113 44.1502 21.3061 44.1502 21.3002 44.1502Z" fill="#231F20"/>
<path d="M23.4329 51.8527C23.3932 51.8527 23.356 51.8286 23.3411 51.7895C22.3637 49.1732 21.6448 46.5757 21.204 44.0694C21.1948 44.016 21.23 43.9658 21.2834 43.9561C21.3374 43.9463 21.3869 43.9821 21.3967 44.0355C21.8356 46.5301 22.5512 49.1159 23.524 51.7212C23.5429 51.772 23.5175 51.828 23.4667 51.8469C23.4557 51.8508 23.444 51.8527 23.4322 51.8527H23.4329Z" fill="#231F20"/>
<path d="M27.2336 59.7917C27.1985 59.7917 27.1646 59.7728 27.147 59.7396C27.1223 59.6921 27.1405 59.6328 27.188 59.6074C29.9333 58.1696 32.4091 56.2461 34.5468 53.8908C36.2581 52.0051 37.7577 49.84 39.004 47.4554C40.1136 45.3326 40.813 43.4254 41.2043 42.1992C41.5208 41.2082 41.6921 40.4899 41.7598 40.1858L38.5691 41.1828C38.53 41.1951 38.4864 41.1815 38.4616 41.1482C38.4369 41.115 38.4356 41.0701 38.4584 41.0356L40.4425 38.065L37.7577 37.6782C37.7043 37.6704 37.6672 37.6209 37.675 37.5675C37.6829 37.5141 37.7323 37.477 37.7857 37.4848L40.6235 37.8937C40.6567 37.8983 40.6854 37.9198 40.699 37.9504C40.7127 37.981 40.7094 38.0168 40.6912 38.0442L38.7748 40.9138L41.8607 39.9495C41.8933 39.939 41.9291 39.9469 41.9551 39.9697C41.9805 39.9924 41.9922 40.0269 41.9857 40.0608C41.9792 40.094 41.3157 43.4527 39.1799 47.5394C37.9257 49.9396 36.4163 52.1197 34.694 54.0185C32.5399 56.3926 30.0447 58.3311 27.2779 59.78C27.2636 59.7878 27.248 59.7911 27.2323 59.7911L27.2336 59.7917Z" fill="#231F20"/>
<path d="M27.2336 59.7917C27.2141 59.7917 27.1939 59.7859 27.177 59.7735C27.1333 59.7422 27.1229 59.681 27.1542 59.6374C27.1652 59.6218 28.2866 58.0453 29.5667 55.3215C30.7479 52.808 32.3101 48.7766 33.0433 43.8408C33.0511 43.7874 33.1012 43.7503 33.154 43.7588C33.2074 43.7666 33.2438 43.8161 33.236 43.8695C32.4989 48.8313 30.9283 52.8835 29.7406 55.41C28.4532 58.1488 27.3235 59.7357 27.3124 59.752C27.2935 59.7787 27.2636 59.793 27.2329 59.793L27.2336 59.7917Z" fill="#231F20"/>
<path d="M33.1404 43.9521C33.1358 43.9521 33.1306 43.9521 33.1261 43.9508C33.0727 43.943 33.0362 43.8935 33.044 43.8401C33.3833 41.5584 33.522 39.2514 33.4562 36.9827C33.4549 36.9287 33.4972 36.8837 33.5513 36.8824C33.5519 36.8824 33.5532 36.8824 33.5539 36.8824C33.6066 36.8824 33.6496 36.9241 33.6516 36.9775C33.7173 39.2573 33.578 41.576 33.2374 43.8694C33.2302 43.9176 33.1886 43.9528 33.141 43.9528L33.1404 43.9521Z" fill="#231F20"/>
<path d="M26.1625 41.5884C26.1521 41.5884 26.1417 41.5865 26.1313 41.5832C26.0037 41.5403 25.8871 41.468 25.7933 41.3755L24.9247 40.514C24.8863 40.4763 24.8863 40.4144 24.9247 40.376C24.9625 40.3376 25.0243 40.3376 25.0627 40.376L25.9314 41.2375C26.0037 41.3097 26.0948 41.3651 26.1945 41.399C26.2459 41.4165 26.2732 41.4719 26.2557 41.5227C26.242 41.5637 26.2042 41.5891 26.1632 41.5891L26.1625 41.5884Z" fill="#231F20"/>
<path d="M28.2553 41.5884C28.2143 41.5884 28.1765 41.563 28.1629 41.522C28.1453 41.4712 28.1733 41.4152 28.2241 41.3983C28.3237 41.3644 28.4142 41.309 28.4871 41.2368L29.2777 40.4528C29.3161 40.415 29.3779 40.415 29.4157 40.4528C29.4534 40.4912 29.4534 40.5531 29.4157 40.5908L28.6252 41.3748C28.5314 41.4679 28.4148 41.5396 28.2872 41.5825C28.2768 41.5858 28.2664 41.5877 28.256 41.5877L28.2553 41.5884Z" fill="#231F20"/>
<path d="M28.0052 41.6301H26.4125C26.3181 41.6301 26.2236 41.6145 26.1312 41.5833C26.0804 41.5663 26.0524 41.5103 26.07 41.4595C26.0869 41.4087 26.1429 41.3807 26.1937 41.3983C26.266 41.4224 26.3396 41.4348 26.4125 41.4348H28.0052C28.0782 41.4348 28.1517 41.4224 28.224 41.3983C28.2755 41.3807 28.3308 41.4087 28.3477 41.4595C28.3653 41.5103 28.3373 41.5663 28.2865 41.5833C28.1941 41.6145 28.0996 41.6301 28.0052 41.6301Z" fill="#231F20"/>
<path d="M30.386 48.2277H30.3853C30.3313 48.2277 30.2883 48.1834 30.2883 48.1294C30.3182 44.5284 28.5354 42.0169 28.1779 41.55C28.1453 41.507 28.1531 41.4458 28.1961 41.4133C28.2391 41.3801 28.3003 41.3885 28.3329 41.4315C28.6975 41.9075 30.5142 44.4666 30.4836 48.1313C30.4836 48.1847 30.4394 48.2283 30.386 48.2283V48.2277Z" fill="#231F20"/>
<path d="M30.3859 48.143H30.2882V48.1287C30.2889 48.0753 30.3325 48.0323 30.3859 48.0323H30.3872C30.4412 48.033 30.4842 48.0773 30.4836 48.1313V48.1378L30.3859 48.1424V48.143Z" fill="#231F20"/>
<path d="M24.0326 48.27C23.9792 48.27 23.9355 48.2271 23.9349 48.1737C23.89 44.4861 25.7184 41.9101 26.0857 41.4309C26.1183 41.3879 26.1794 41.3801 26.2224 41.4126C26.2654 41.4452 26.2732 41.5071 26.2407 41.5494C25.8806 42.0195 24.0866 44.548 24.1302 48.171C24.1302 48.2251 24.0879 48.2694 24.0339 48.27H24.0326Z" fill="#231F20"/>
<path d="M30.3859 48.2277C30.3605 48.2277 30.3351 48.2179 30.3163 48.1984C30.2785 48.16 30.2791 48.0981 30.3176 48.0603C32.2613 46.1531 32.932 44.1983 33.0466 43.8258C33.0622 43.7744 33.1176 43.7457 33.169 43.7613C33.2204 43.777 33.2498 43.8317 33.2335 43.8838C33.1163 44.2641 32.4319 46.2599 30.4543 48.2003C30.4354 48.2192 30.4107 48.2283 30.3859 48.2283V48.2277Z" fill="#231F20"/>
<path d="M23.4328 51.8528C23.3879 51.8528 23.3481 51.8222 23.3377 51.7766C23.326 51.7239 23.3585 51.6718 23.4113 51.6601C24.7592 51.354 26.0147 50.9067 27.1425 50.3297C27.1907 50.305 27.2493 50.3239 27.274 50.372C27.2987 50.4202 27.2792 50.4788 27.2317 50.5036C26.0889 51.0877 24.8178 51.5415 23.4543 51.8508C23.4471 51.8528 23.4399 51.8534 23.4328 51.8534V51.8528Z" fill="#231F20"/>
<path d="M27.1867 50.5139C27.1516 50.5139 27.1171 50.4944 27.0995 50.4605C27.0748 50.4123 27.0943 50.3537 27.1418 50.329C28.3374 49.7175 29.4053 48.9544 30.3169 48.0597C30.3553 48.0219 30.4172 48.0225 30.4549 48.061C30.4927 48.0994 30.492 48.1613 30.4536 48.199C29.5283 49.1074 28.4435 49.8823 27.2304 50.5028C27.216 50.51 27.2011 50.5133 27.1861 50.5133L27.1867 50.5139Z" fill="#231F20"/>
<path d="M27.1867 50.5139C27.1718 50.5139 27.1568 50.5107 27.1425 50.5035C25.9495 49.8934 24.8803 49.1328 23.9641 48.2427C23.9257 48.2049 23.9244 48.143 23.9622 48.1046C23.9999 48.0662 24.0618 48.0649 24.1002 48.1027C25.0027 48.9792 26.0563 49.7286 27.231 50.3296C27.2792 50.3544 27.2981 50.413 27.2733 50.4612C27.2558 50.495 27.2219 50.5146 27.1861 50.5146L27.1867 50.5139Z" fill="#231F20"/>
<path d="M24.0325 48.27C24.0078 48.27 23.9837 48.2609 23.9648 48.2427C22.1917 46.5197 21.4467 44.7609 21.2084 44.085C21.1908 44.0342 21.2175 43.9782 21.2683 43.9606C21.3191 43.943 21.3751 43.9697 21.3927 44.0205C21.6258 44.684 22.3571 46.409 24.1002 48.1033C24.1386 48.1411 24.1399 48.2029 24.1022 48.2414C24.0833 48.2609 24.0573 48.2713 24.0319 48.2713L24.0325 48.27Z" fill="#231F20"/>
<path d="M26.0837 53.8629C25.6885 53.8629 25.3668 53.5412 25.3668 53.146C25.3668 52.7507 25.6885 52.4291 26.0837 52.4291C26.479 52.4291 26.8007 52.7507 26.8007 53.146C26.8007 53.5412 26.479 53.8629 26.0837 53.8629ZM26.0837 52.6244C25.7959 52.6244 25.5622 52.8582 25.5622 53.146C25.5622 53.4338 25.7959 53.6676 26.0837 53.6676C26.3715 53.6676 26.6053 53.4338 26.6053 53.146C26.6053 52.8582 26.3715 52.6244 26.0837 52.6244Z" fill="#231F20"/>
<path d="M19.69 23.4243C19.66 23.4243 19.6301 23.4106 19.6106 23.3839C19.4354 23.1417 19.2576 22.9007 19.0798 22.6605C17.6167 20.6777 16.1034 18.6278 16.1275 15.9424C16.1477 13.6516 17.7163 12.111 20.7898 11.3621C20.7846 11.1349 20.7983 10.4772 21.0815 9.71208C21.3993 8.85385 22.1318 7.69934 23.8144 7.07683C26.173 6.20427 28.0197 6.6731 29.1533 7.22008C30.2414 7.74492 30.8841 8.42343 31.0365 8.59534C31.282 8.5732 32.3414 8.50158 33.576 8.78223C35.3902 9.19442 36.7049 10.1848 37.3821 11.6473C37.7129 11.6695 39.2659 11.8271 40.1124 12.8377C40.5611 13.3729 40.731 14.056 40.6177 14.8693C40.5031 15.6924 40.1241 16.4594 39.5218 17.0878C38.9253 17.7097 38.1322 18.6258 37.7396 19.4619C37.7168 19.5108 37.6582 19.5316 37.6093 19.5088C37.5605 19.486 37.5397 19.4274 37.5625 19.3786C37.9662 18.5191 38.7736 17.5846 39.3798 16.9524C39.9535 16.354 40.3143 15.6246 40.423 14.8426C40.5278 14.0866 40.3729 13.455 39.962 12.964C39.0875 11.9195 37.3307 11.8407 37.3131 11.8394C37.276 11.8381 37.2427 11.8153 37.2278 11.7821C36.5753 10.3294 35.3335 9.38456 33.537 8.97497C32.1884 8.66763 31.017 8.7946 31.0059 8.7959C30.9727 8.79981 30.9408 8.78679 30.9199 8.76139C30.9134 8.75358 30.2531 7.96762 29.0602 7.39395C27.9624 6.86586 26.1723 6.41395 23.8815 7.26176C22.589 7.73971 21.7092 8.58558 21.2665 9.77395C20.935 10.6641 20.9865 11.4246 20.9871 11.4325C20.9904 11.48 20.9591 11.5236 20.9122 11.5347C17.8856 12.2529 16.3411 13.7369 16.3215 15.9457C16.2981 18.5659 17.7254 20.4992 19.2361 22.5465C19.4139 22.7874 19.5917 23.0284 19.7675 23.2712C19.7994 23.3149 19.7896 23.3761 19.746 23.4073C19.7284 23.4197 19.7089 23.4262 19.6887 23.4262L19.69 23.4243Z" fill="#231F20"/>
<path d="M21.9951 28.5951C21.9508 28.5951 21.9111 28.5652 21.9 28.5203C21.5757 27.175 21.1115 25.9332 20.5195 24.8295C20.4942 24.7819 20.5117 24.7227 20.5593 24.6973C20.6068 24.6719 20.6661 24.6895 20.6914 24.737C21.2912 25.855 21.762 27.1124 22.0895 28.474C22.1019 28.5268 22.07 28.5795 22.0172 28.5919C22.0094 28.5938 22.0016 28.5945 21.9944 28.5945L21.9951 28.5951Z" fill="#231F20"/>
<path d="M19.6899 23.4243C19.6457 23.4243 19.6059 23.3943 19.5949 23.3494C19.5402 23.1241 19.5128 22.8916 19.5128 22.6578C19.5128 21.1439 20.6628 19.9125 22.0758 19.9125H22.0901C22.7387 19.9165 23.3378 20.2837 23.6523 20.8724C23.8665 21.2741 24.0625 21.6518 24.237 21.9982C24.4454 21.1491 25.2502 18.5998 27.4922 18.0698L26.574 15.5211C26.5597 15.4807 26.5727 15.4358 26.6072 15.4097C26.6417 15.3844 26.6886 15.3837 26.7238 15.4097C26.7297 15.4137 27.3274 15.8389 28.6258 16.0485C29.8266 16.2426 31.8888 16.2862 34.892 15.3948C34.892 15.3948 34.9297 15.3824 34.9936 15.3674C35.8707 15.1617 36.7647 15.652 37.0727 16.5076C37.2518 17.0058 37.4009 17.5391 37.5161 18.0925C37.6028 18.5086 37.6809 18.9501 37.7499 19.404C37.7577 19.4574 37.7213 19.5069 37.6679 19.5153C37.6138 19.5231 37.565 19.4867 37.5565 19.4333C37.4888 18.9827 37.4107 18.5451 37.3247 18.1323C37.2114 17.5872 37.0649 17.0631 36.8891 16.5734C36.6143 15.8109 35.8192 15.3739 35.0378 15.5569C34.9825 15.5699 34.9506 15.5804 34.9506 15.5804C33.2641 16.0811 30.7923 16.6007 28.5764 16.238C27.7025 16.0948 27.1412 15.8597 26.8501 15.7093L27.7142 18.1082C27.724 18.1349 27.7214 18.1642 27.7077 18.1889C27.694 18.2137 27.6699 18.2312 27.6419 18.2365C24.995 18.7724 24.3763 22.2704 24.3705 22.3056C24.3633 22.3472 24.3301 22.3798 24.2885 22.3863C24.2468 22.3922 24.2051 22.3707 24.1869 22.3329C23.9844 21.9227 23.7473 21.4617 23.481 20.9635C23.2004 20.438 22.6671 20.1098 22.0895 20.1066H22.0771C20.7715 20.1066 19.7095 21.2507 19.7095 22.6565C19.7095 22.8747 19.7355 23.0922 19.7863 23.3019C19.7993 23.3546 19.7668 23.4073 19.7147 23.4197C19.7069 23.4217 19.699 23.4223 19.6919 23.4223L19.6899 23.4243Z" fill="#231F20"/>
<path d="M32.4208 25.3771C31.3477 25.3771 30.483 24.5684 30.1665 24.2278C30.1301 24.1881 30.132 24.1262 30.1717 24.0897C30.2115 24.0533 30.2733 24.0552 30.3098 24.095C31.9826 25.8974 33.3878 25.0177 33.9146 24.556C33.955 24.5202 34.0168 24.5247 34.0526 24.5651C34.0885 24.6055 34.0839 24.6673 34.0436 24.7032C33.4803 25.1974 32.9274 25.3771 32.4208 25.3771Z" fill="#231F20"/>
<path d="M30.2382 24.2591C30.2011 24.2591 30.1653 24.2376 30.149 24.2011C30.1268 24.1517 30.149 24.0944 30.1984 24.0722C30.3437 24.0078 30.4667 23.9107 30.5644 23.7838C30.5976 23.7408 30.6588 23.733 30.7012 23.7662C30.7441 23.7987 30.7519 23.8606 30.7187 23.9029C30.6009 24.0559 30.4524 24.1725 30.2779 24.2506C30.2649 24.2565 30.2512 24.2591 30.2382 24.2591Z" fill="#231F20"/>
<path d="M29.7529 24.36C29.6813 24.36 29.6364 24.3541 29.6318 24.3535C29.5784 24.3456 29.5413 24.2962 29.5491 24.2428C29.5569 24.1894 29.6064 24.1522 29.6592 24.1601C29.6592 24.1601 29.9248 24.1946 30.1983 24.0728C30.2472 24.0507 30.3051 24.0728 30.3273 24.1223C30.3494 24.1718 30.3273 24.2291 30.2778 24.2512C30.072 24.343 29.8741 24.3606 29.7529 24.3606V24.36Z" fill="#231F20"/>
</g>
<defs>
<clipPath id="clip0_23_8961">
<rect width="56" height="56" fill="white" transform="translate(0.380371)"/>
</clipPath>
</defs>
</svg>
